<svg width="20" height="21" viewBox="0 0 20 21" fill="none" xmlns="http://www.w3.org/2000/svg">
<path d="M11.4695 10.4773L19.7595 2.20951C19.9234 2.01872 20.009 1.7733 19.9993 1.5223C19.9895 1.27129 19.8852 1.03319 19.7071 0.855575C19.529 0.677957 19.2903 0.573903 19.0386 0.564208C18.7869 0.554513 18.5408 0.63989 18.3495 0.803279L10.0595 9.07111L1.76954 0.793305C1.58124 0.605505 1.32585 0.5 1.05954 0.5C0.793242 0.5 0.537847 0.605505 0.349543 0.793305C0.16124 0.981105 0.0554518 1.23582 0.0554518 1.50141C0.0554518 1.767 0.16124 2.02171 0.349543 2.20951L8.64954 10.4773L0.349543 18.7452C0.244862 18.8346 0.159841 18.9446 0.0998181 19.0683C0.0397948 19.1921 0.00606468 19.3268 0.000745191 19.4642C-0.0045743 19.6015 0.0186312 19.7385 0.0689057 19.8665C0.11918 19.9945 0.195439 20.1107 0.292893 20.2079C0.390348 20.3051 0.506895 20.3811 0.63522 20.4313C0.763546 20.4814 0.900878 20.5046 1.0386 20.4993C1.17632 20.4939 1.31145 20.4603 1.43551 20.4004C1.55958 20.3406 1.6699 20.2558 1.75954 20.1514L10.0595 11.8836L18.3495 20.1514C18.5408 20.3148 18.7869 20.4002 19.0386 20.3905C19.2903 20.3808 19.529 20.2767 19.7071 20.0991C19.8852 19.9215 19.9895 19.6834 19.9993 19.4324C20.009 19.1814 19.9234 18.936 19.7595 18.7452L11.4695 10.4773Z" fill="#2C2C2C"/>
</svg>
