<svg width="30" height="30" viewBox="0 0 30 30" fill="none" xmlns="http://www.w3.org/2000/svg">
<g clip-path="url(#clip0_413_7862)">
<path d="M29.6809 12.1913L15.4604 1.77934C15.1862 1.5786 14.8137 1.5786 14.5396 1.77934L0.319015 12.1913C-0.0283279 12.4456 -0.103797 12.9334 0.150559 13.2807C0.404914 13.6281 0.892706 13.7034 1.23999 13.4492L15 3.37432L28.7599 13.4491C28.8987 13.5508 29.0599 13.5997 29.2198 13.5997C29.4598 13.5997 29.6966 13.4892 29.8493 13.2807C30.1037 12.9334 30.0282 12.4456 29.6809 12.1913Z" fill="#2C2C2C"/>
<path d="M25.9129 13.6255C25.4824 13.6255 25.1334 13.9745 25.1334 14.405V26.8121H18.8977V20.0395C18.8977 17.8903 17.1492 16.1419 15.0001 16.1419C12.851 16.1419 11.1024 17.8904 11.1024 20.0395V26.8122H4.86668V14.405C4.86668 13.9745 4.51764 13.6255 4.08721 13.6255C3.65678 13.6255 3.30774 13.9745 3.30774 14.405V27.5917C3.30774 28.0222 3.65678 28.3712 4.08721 28.3712H11.8819C12.2918 28.3712 12.6273 28.0545 12.6583 27.6524C12.6602 27.6342 12.6614 27.6143 12.6614 27.5917V20.0396C12.6614 18.75 13.7105 17.7009 15.0001 17.7009C16.2897 17.7009 17.3388 18.75 17.3388 20.0396V27.5917C17.3388 27.6142 17.3399 27.6337 17.3418 27.6517C17.3725 28.0541 17.7081 28.3712 18.1182 28.3712H25.9129C26.3434 28.3712 26.6924 28.0222 26.6924 27.5917V14.405C26.6923 13.9745 26.3433 13.6255 25.9129 13.6255Z" fill="#2C2C2C"/>
</g>
<defs>
<clipPath id="clip0_413_7862">
<rect width="30" height="30" fill="white"/>
</clipPath>
</defs>
</svg>
