<svg width="30" height="30" viewBox="0 0 30 30" fill="none" xmlns="http://www.w3.org/2000/svg">
<path d="M20.8343 10V7.54171C20.8343 6.77566 20.6834 6.01712 20.3903 5.30939C20.0971 4.60166 19.6674 3.95859 19.1257 3.41692C18.5841 2.87524 17.941 2.44556 17.2333 2.15241C16.5255 1.85926 15.767 1.70837 15.001 1.70837C14.2349 1.70837 13.4764 1.85926 12.7686 2.15241C12.0609 2.44556 11.4178 2.87524 10.8762 3.41692C10.3345 3.95859 9.90481 4.60166 9.61166 5.30939C9.31851 6.01712 9.16762 6.77566 9.16762 7.54171V13.375C9.16762 13.5961 9.25542 13.808 9.4117 13.9643C9.56798 14.1206 9.77994 14.2084 10.001 14.2084C10.222 14.2084 10.4339 14.1206 10.5902 13.9643C10.7465 13.808 10.8343 13.5961 10.8343 13.375V11.6667H17.501V10H10.8343V7.54171C10.8343 6.43664 11.2733 5.37683 12.0547 4.59543C12.8361 3.81403 13.8959 3.37504 15.001 3.37504C16.106 3.37504 17.1658 3.81403 17.9472 4.59543C18.7286 5.37683 19.1676 6.43664 19.1676 7.54171V13.3334C19.1676 13.5544 19.2554 13.7664 19.4117 13.9226C19.568 14.0789 19.7799 14.1667 20.001 14.1667C20.222 14.1667 20.4339 14.0789 20.5902 13.9226C20.7465 13.7664 20.8343 13.5544 20.8343 13.3334V11.6667H25.001V26.6667H5.00096V11.6667H7.50096V10H3.33429V26.7417C3.33429 27.1638 3.50198 27.5687 3.80048 27.8672C4.09897 28.1657 4.50382 28.3334 4.92596 28.3334H25.076C25.4981 28.3334 25.9029 28.1657 26.2014 27.8672C26.4999 27.5687 26.6676 27.1638 26.6676 26.7417V10H20.8343Z" fill="#2C2C2C"/>
<path d="M10.8343 17.5416C10.8343 17.7737 10.9284 17.9963 11.0958 18.1603C11.2632 18.3244 11.4903 18.4166 11.7271 18.4166C11.9639 18.4166 12.191 18.3244 12.3585 18.1603C12.5259 17.9963 12.62 17.7737 12.62 17.5416C12.62 17.3096 12.5259 17.087 12.3585 16.9229C12.191 16.7588 11.9639 16.6666 11.7271 16.6666C11.4903 16.6666 11.2632 16.7588 11.0958 16.9229C10.9284 17.087 10.8343 17.3096 10.8343 17.5416ZM17.8283 19.5833H16.9336C16.8555 19.5833 16.7885 19.6416 16.7829 19.7182C16.7141 20.6205 15.9403 21.3333 15.001 21.3333C14.0616 21.3333 13.2896 20.6205 13.219 19.7182C13.2134 19.6416 13.1464 19.5833 13.0683 19.5833H12.1736C12.1534 19.5833 12.1334 19.5873 12.1149 19.595C12.0963 19.6028 12.0796 19.6142 12.0656 19.6286C12.0517 19.6429 12.0409 19.6598 12.0339 19.6784C12.0269 19.6969 12.0238 19.7167 12.0248 19.7364C12.1066 21.2731 13.4106 22.5 15.001 22.5C16.5914 22.5 17.8953 21.2731 17.9771 19.7364C17.9782 19.7167 17.9751 19.6969 17.968 19.6784C17.961 19.6598 17.9502 19.6429 17.9363 19.6286C17.9224 19.6142 17.9056 19.6028 17.8871 19.595C17.8685 19.5873 17.8485 19.5833 17.8283 19.5833ZM17.3819 17.5416C17.3819 17.7737 17.476 17.9963 17.6434 18.1603C17.8109 18.3244 18.038 18.4166 18.2748 18.4166C18.5116 18.4166 18.7387 18.3244 18.9061 18.1603C19.0736 17.9963 19.1676 17.7737 19.1676 17.5416C19.1676 17.3096 19.0736 17.087 18.9061 16.9229C18.7387 16.7588 18.5116 16.6666 18.2748 16.6666C18.038 16.6666 17.8109 16.7588 17.6434 16.9229C17.476 17.087 17.3819 17.3096 17.3819 17.5416Z" fill="#2C2C2C"/>
</svg>
