<svg width="146" height="24" viewBox="0 0 146 24" fill="none" xmlns="http://www.w3.org/2000/svg">
<path d="M32.0476 18.562V6.77118C32.0476 6.30123 32.1801 5.92139 32.4452 5.6317C32.7106 5.33557 33.0534 5.18751 33.4738 5.18751C34.25 5.18751 34.7287 5.58342 34.9098 6.37527C35.1686 5.95681 35.5436 5.63492 36.0352 5.40961C36.5333 5.18427 37.0638 5.07161 37.6266 5.07161C38.3639 5.07161 39.0335 5.23578 39.635 5.56411C40.2365 5.886 40.7217 6.31732 41.0903 6.85809C41.4656 7.39887 41.75 8.0008 41.9442 8.6639C42.1447 9.32054 42.2449 10.003 42.2449 10.7111C42.2449 11.3871 42.1317 12.0469 41.9052 12.6907C41.679 13.3281 41.3652 13.8978 40.9643 14.3999C40.5695 14.9021 40.0715 15.3077 39.47 15.6167C38.8749 15.9193 38.2281 16.0706 37.5295 16.0706C36.5463 16.0706 35.673 15.739 34.9098 15.0759V18.562C34.9098 19.0319 34.7739 19.4118 34.5023 19.7015C34.2371 19.9911 33.8942 20.1359 33.4738 20.1359C33.0534 20.1359 32.7106 19.9911 32.4452 19.7015C32.1801 19.4118 32.0476 19.0319 32.0476 18.562ZM34.9098 10.489C34.9098 10.9783 34.9842 11.4418 35.133 11.8796C35.2816 12.3109 35.5308 12.6811 35.88 12.9901C36.2294 13.2991 36.6531 13.4536 37.1511 13.4536C37.6233 13.4536 38.0339 13.3055 38.3833 13.0094C38.7325 12.7068 38.9848 12.3431 39.1401 11.9182C39.3017 11.4933 39.3827 11.0491 39.3827 10.5856C39.3827 10.1156 39.3017 9.66496 39.1401 9.23364C38.9848 8.8023 38.7325 8.43536 38.3833 8.13277C38.0339 7.83021 37.6233 7.67891 37.1511 7.67891C36.7823 7.67891 36.4492 7.75938 36.1518 7.92034C35.8605 8.08127 35.6277 8.29694 35.4532 8.56733C35.2785 8.83771 35.1427 9.13706 35.0456 9.4654C34.955 9.79372 34.9098 10.1349 34.9098 10.489ZM43.6177 14.3613V6.61667C43.6177 6.17248 43.7632 5.82484 44.0542 5.57377C44.3518 5.31624 44.6946 5.18751 45.0827 5.18751C46.0142 5.18751 46.4799 5.58342 46.4799 6.37527H46.5188C46.7904 5.96968 47.0847 5.67033 47.4016 5.4772C47.7185 5.28406 48.0938 5.18751 48.5272 5.18751C48.9087 5.18751 49.2355 5.32269 49.5071 5.59308C49.7789 5.85704 49.9147 6.23041 49.9147 6.71325C49.9147 6.89351 49.8855 7.04801 49.8273 7.17677C49.7692 7.2991 49.6754 7.40531 49.546 7.49544C49.4231 7.57912 49.3034 7.64672 49.1869 7.69822C49.0706 7.74972 48.9087 7.81412 48.7017 7.89137C48.4947 7.96862 48.33 8.03622 48.207 8.09415C47.9611 8.21002 47.7866 8.29373 47.6831 8.34523C47.586 8.39028 47.4405 8.4772 47.2464 8.60595C47.0524 8.72826 46.9133 8.84737 46.8293 8.96325C46.745 9.07269 46.6643 9.21753 46.5867 9.39779C46.5155 9.57805 46.4799 9.77763 46.4799 9.99651V14.3613C46.4799 14.8313 46.3441 15.2143 46.0723 15.5105C45.8072 15.8002 45.4644 15.945 45.044 15.945C44.6234 15.945 44.2806 15.8002 44.0155 15.5105C43.7503 15.2143 43.6177 14.8313 43.6177 14.3613ZM60.2525 7.05123V14.0909C60.2525 14.2905 60.2494 14.4514 60.2428 14.5738C60.2364 14.6961 60.2072 14.857 60.1554 15.0566C60.1103 15.2497 60.0424 15.4042 59.9518 15.5201C59.8613 15.6295 59.7222 15.7293 59.5345 15.8195C59.3534 15.9032 59.1335 15.945 58.8748 15.945C58.4803 15.945 58.1795 15.8452 57.9725 15.6457C57.7655 15.4461 57.6103 15.1435 57.5068 14.7379C56.7499 15.6263 55.8412 16.0706 54.7804 16.0706C53.4283 16.0706 52.3029 15.5555 51.4037 14.5255C50.5046 13.489 50.0552 12.1757 50.0552 10.5856C50.0552 9.56196 50.2653 8.62849 50.6857 7.78513C51.1063 6.93535 51.6786 6.27227 52.4031 5.79587C53.1276 5.31303 53.9199 5.07161 54.7804 5.07161C55.3301 5.07161 55.8443 5.18106 56.323 5.39994C56.8016 5.61883 57.1963 5.94393 57.5068 6.37527C57.5455 6.02763 57.6943 5.74437 57.9531 5.52549C58.2182 5.30015 58.5254 5.18751 58.8748 5.18751C59.0623 5.18751 59.2306 5.21002 59.3792 5.2551C59.5281 5.30015 59.651 5.3581 59.7481 5.42891C59.845 5.49329 59.9259 5.58342 59.9907 5.69929C60.0553 5.80875 60.1037 5.91175 60.1362 6.00831C60.1749 6.09844 60.2008 6.21755 60.2138 6.36561C60.2331 6.51367 60.2428 6.62957 60.2428 6.71325C60.2494 6.79693 60.2525 6.9096 60.2525 7.05123ZM52.9175 10.5856C52.9175 11.062 52.9951 11.5126 53.1503 11.9375C53.3056 12.3559 53.5577 12.7133 53.9071 13.0094C54.2629 13.3055 54.6866 13.4536 55.1782 13.4536C55.6503 13.4536 56.0579 13.3087 56.4007 13.019C56.7499 12.7229 57.0022 12.3624 57.1574 11.9375C57.3127 11.5126 57.3903 11.062 57.3903 10.5856C57.3903 10.1092 57.3127 9.65853 57.1574 9.23364C57.0086 8.8023 56.7596 8.43536 56.4104 8.13277C56.0674 7.83021 55.6567 7.67891 55.1782 7.67891C54.68 7.67891 54.2532 7.83021 53.8973 8.13277C53.5481 8.43536 53.2958 8.79909 53.1406 9.22398C52.9918 9.64887 52.9175 10.1027 52.9175 10.5856ZM70.2898 6.86776C70.2898 7.19609 70.1863 7.50832 69.9793 7.80446C69.7723 8.09415 69.5103 8.23899 69.1934 8.23899C68.9669 8.23899 68.6144 8.14565 68.1357 7.95896C67.6571 7.77226 67.256 7.67891 66.9327 7.67891C66.4152 7.67891 65.9689 7.82376 65.5937 8.11347C65.2186 8.39673 64.9468 8.75401 64.7787 9.18535C64.6105 9.61025 64.5264 10.077 64.5264 10.5856C64.5264 11.0684 64.6169 11.5255 64.798 11.9568C64.9791 12.3817 65.2573 12.739 65.6326 13.0287C66.0076 13.312 66.4411 13.4536 66.9327 13.4536C67.2042 13.4536 67.6054 13.357 68.1357 13.1639C68.6662 12.9643 68.9734 12.8645 69.0574 12.8645C69.3938 12.8645 69.6817 12.9869 69.921 13.2315C70.1669 13.4761 70.2898 13.769 70.2898 14.1102C70.2898 14.4514 70.1571 14.7572 69.892 15.0276C69.6332 15.298 69.3066 15.504 68.9119 15.6457C68.5238 15.7873 68.1454 15.8935 67.7768 15.9643C67.4081 16.0351 67.0782 16.0706 66.7871 16.0706C65.7909 16.0706 64.8984 15.8195 64.1091 15.3173C63.3201 14.8152 62.7153 14.1489 62.2949 13.3184C61.8743 12.4879 61.6642 11.577 61.6642 10.5856C61.6642 9.87097 61.7902 9.17892 62.0426 8.5094C62.3013 7.83987 62.6505 7.25402 63.0903 6.75188C63.5302 6.2433 64.0704 5.83771 64.7106 5.53513C65.3575 5.22611 66.0496 5.07161 66.7871 5.07161C67.1105 5.07161 67.4566 5.10381 67.8252 5.16818C68.1941 5.22611 68.5691 5.31948 68.9508 5.44823C69.3389 5.57699 69.6591 5.76689 69.9112 6.01797C70.1636 6.26261 70.2898 6.54587 70.2898 6.86776ZM71.4781 14.3613V2.18427C71.4781 1.71433 71.6106 1.33449 71.876 1.0448C72.1411 0.748655 72.4839 0.600586 72.9043 0.600586C73.3249 0.600586 73.6677 0.748655 73.9328 1.0448C74.2046 1.33449 74.3404 1.71433 74.3404 2.18427V6.0566H74.3791C74.6509 5.71538 75.0259 5.46754 75.5047 5.31303C75.9832 5.1521 76.4748 5.07161 76.9795 5.07161C78.1308 5.07161 79.0719 5.41603 79.8028 6.10489C80.5339 6.79372 80.8992 7.7272 80.8992 8.9053V14.3613C80.8992 14.8313 80.7634 15.2143 80.4919 15.5105C80.2265 15.8002 79.8837 15.945 79.4633 15.945C79.043 15.945 78.7 15.8002 78.4348 15.5105C78.1697 15.2143 78.037 14.8313 78.037 14.3613V9.39779C78.037 8.76691 77.8592 8.28406 77.5034 7.9493C77.1542 7.61454 76.7077 7.44715 76.1644 7.44715C75.5951 7.44715 75.1489 7.63063 74.8256 7.99759C74.502 8.3581 74.3404 8.82484 74.3404 9.39779V14.3613C74.3404 14.8313 74.2046 15.2143 73.9328 15.5105C73.6677 15.8002 73.3249 15.945 72.9043 15.945C72.4839 15.945 72.1411 15.8002 71.876 15.5105C71.6106 15.2143 71.4781 14.8313 71.4781 14.3613ZM82.7185 14.3613V2.18427C82.7185 1.71433 82.8509 1.33449 83.1161 1.0448C83.3814 0.748655 83.7242 0.600586 84.1446 0.600586C84.565 0.600586 84.908 0.748655 85.1731 1.0448C85.4447 1.33449 85.5807 1.71433 85.5807 2.18427V8.82805L88.7145 5.80553C89.1479 5.39352 89.5814 5.18751 90.0148 5.18751C90.364 5.18751 90.6519 5.31948 90.8782 5.58342C91.111 5.84093 91.2276 6.13706 91.2276 6.47183C91.2276 6.88384 91.04 7.26045 90.6648 7.60166L88.1227 9.86131L91.4799 13.7723C91.7192 14.0426 91.8388 14.3581 91.8388 14.7186C91.8388 15.0984 91.7061 15.4203 91.441 15.6843C91.1822 15.9418 90.8653 16.0706 90.4901 16.0706C90.0568 16.0706 89.5975 15.7776 89.1123 15.1918L85.6194 10.9042H85.5807V14.3613C85.5807 14.8313 85.4447 15.2143 85.1731 15.5105C84.908 15.8002 84.565 15.945 84.1446 15.945C83.7242 15.945 83.3814 15.8002 83.1161 15.5105C82.8509 15.2143 82.7185 14.8313 82.7185 14.3613ZM102.633 7.05123V14.0909C102.633 14.2905 102.63 14.4514 102.623 14.5738C102.616 14.6961 102.588 14.857 102.536 15.0566C102.49 15.2497 102.423 15.4042 102.332 15.5201C102.241 15.6295 102.102 15.7293 101.915 15.8195C101.734 15.9032 101.514 15.945 101.255 15.945C100.86 15.945 100.56 15.8452 100.353 15.6457C100.146 15.4461 99.9904 15.1435 99.8869 14.7379C99.1302 15.6263 98.2213 16.0706 97.1605 16.0706C95.8086 16.0706 94.683 15.5555 93.7841 14.5255C92.8849 13.489 92.4353 12.1757 92.4353 10.5856C92.4353 9.56196 92.6456 8.62849 93.066 7.78513C93.4864 6.93535 94.059 6.27227 94.7834 5.79587C95.5079 5.31303 96.3002 5.07161 97.1605 5.07161C97.7102 5.07161 98.2246 5.18106 98.7032 5.39994C99.1819 5.61883 99.5764 5.94393 99.8869 6.37527C99.9256 6.02763 100.074 5.74437 100.333 5.52549C100.598 5.30015 100.906 5.18751 101.255 5.18751C101.443 5.18751 101.611 5.21002 101.76 5.2551C101.908 5.30015 102.031 5.3581 102.128 5.42891C102.225 5.49329 102.306 5.58342 102.371 5.69929C102.435 5.80875 102.484 5.91175 102.516 6.00831C102.555 6.09844 102.581 6.21755 102.594 6.36561C102.613 6.51367 102.623 6.62957 102.623 6.71325C102.63 6.79693 102.633 6.9096 102.633 7.05123ZM95.2976 10.5856C95.2976 11.062 95.3752 11.5126 95.5304 11.9375C95.6857 12.3559 95.938 12.7133 96.2872 13.0094C96.643 13.3055 97.0667 13.4536 97.5583 13.4536C98.0304 13.4536 98.438 13.3087 98.7808 13.019C99.1302 12.7229 99.3823 12.3624 99.5375 11.9375C99.6928 11.5126 99.7704 11.062 99.7704 10.5856C99.7704 10.1092 99.6928 9.65853 99.5375 9.23364C99.3889 8.8023 99.1399 8.43536 98.7905 8.13277C98.4477 7.83021 98.0369 7.67891 97.5583 7.67891C97.0603 7.67891 96.6333 7.83021 96.2775 8.13277C95.9283 8.43536 95.676 8.79909 95.5207 9.22398C95.3719 9.64887 95.2976 10.1027 95.2976 10.5856Z" fill="#006CB9"/>
<path d="M117.878 6.86744C117.878 7.19578 117.775 7.508 117.568 7.80414C117.361 8.09383 117.099 8.23868 116.782 8.23868C116.555 8.23868 116.203 8.14533 115.724 7.95865C115.246 7.77194 114.845 7.6786 114.521 7.6786C114.004 7.6786 113.557 7.82344 113.182 8.11315C112.807 8.39642 112.535 8.7537 112.367 9.18504C112.199 9.60993 112.115 10.0767 112.115 10.5853C112.115 11.0681 112.205 11.5252 112.386 11.9565C112.568 12.3814 112.846 12.7387 113.221 13.0284C113.596 13.3116 114.029 13.4533 114.521 13.4533C114.793 13.4533 115.194 13.3567 115.724 13.1636C116.255 12.964 116.562 12.8642 116.646 12.8642C116.982 12.8642 117.27 12.9865 117.509 13.2312C117.755 13.4758 117.878 13.7687 117.878 14.1099C117.878 14.4511 117.746 14.7569 117.48 15.0273C117.222 15.2977 116.895 15.5037 116.501 15.6454C116.112 15.787 115.734 15.8932 115.365 15.964C114.997 16.0348 114.667 16.0702 114.376 16.0702C113.379 16.0702 112.487 15.8192 111.698 15.317C110.909 14.8149 110.304 14.1486 109.883 13.3181C109.463 12.4876 109.253 11.5767 109.253 10.5853C109.253 9.87066 109.379 9.17861 109.631 8.50908C109.89 7.83955 110.239 7.25371 110.679 6.75156C111.119 6.24299 111.659 5.83739 112.299 5.53481C112.946 5.2258 113.638 5.07129 114.376 5.07129C114.699 5.07129 115.045 5.10349 115.414 5.16787C115.782 5.2258 116.158 5.31916 116.539 5.44791C116.927 5.57667 117.248 5.76657 117.5 6.01765C117.752 6.26229 117.878 6.54555 117.878 6.86744ZM123.772 5.07129C124.749 5.07129 125.632 5.33203 126.421 5.85348C127.217 6.36851 127.828 7.04448 128.255 7.88139C128.688 8.71831 128.905 9.61959 128.905 10.5853C128.905 11.3256 128.779 12.0305 128.527 12.7001C128.281 13.3631 127.938 13.9458 127.498 14.4479C127.058 14.9436 126.515 15.3396 125.868 15.6357C125.221 15.9254 124.523 16.0702 123.772 16.0702C122.776 16.0702 121.883 15.8192 121.094 15.317C120.305 14.8149 119.7 14.1486 119.28 13.3181C118.86 12.4876 118.649 11.5767 118.649 10.5853C118.649 9.87066 118.776 9.17861 119.028 8.50908C119.286 7.83955 119.636 7.25371 120.076 6.75156C120.515 6.24299 121.056 5.83739 121.696 5.53481C122.343 5.2258 123.035 5.07129 123.772 5.07129ZM125.053 8.13246C124.697 7.82989 124.27 7.6786 123.772 7.6786C123.274 7.6786 122.847 7.82989 122.492 8.13246C122.142 8.43504 121.89 8.79877 121.735 9.22367C121.586 9.64856 121.511 10.1024 121.511 10.5853C121.511 11.0617 121.589 11.5123 121.744 11.9372C121.9 12.3556 122.152 12.7129 122.501 13.0091C122.857 13.3052 123.281 13.4533 123.772 13.4533C124.264 13.4533 124.688 13.3052 125.043 13.0091C125.399 12.7129 125.655 12.3556 125.81 11.9372C125.965 11.5123 126.043 11.0617 126.043 10.5853C126.043 10.1024 125.965 9.64856 125.81 9.22367C125.661 8.79877 125.409 8.43504 125.053 8.13246ZM130.307 14.361V6.77086C130.307 6.30091 130.439 5.92108 130.705 5.63139C130.97 5.33525 131.313 5.18719 131.733 5.18719C132.102 5.18719 132.399 5.28053 132.626 5.46722C132.859 5.65392 133.001 5.91786 133.053 6.25907C133.79 5.46722 134.676 5.07129 135.711 5.07129C136.914 5.07129 137.901 5.55092 138.67 6.51014C139.059 6.07237 139.531 5.72473 140.087 5.46722C140.65 5.20328 141.183 5.07129 141.688 5.07129C142.878 5.07129 143.829 5.40605 144.54 6.07558C145.252 6.73868 145.608 7.68181 145.608 8.90499V14.361C145.608 14.831 145.472 15.214 145.2 15.5101C144.935 15.7999 144.592 15.9447 144.172 15.9447C143.751 15.9447 143.409 15.7999 143.143 15.5101C142.878 15.214 142.745 14.831 142.745 14.361V9.39748C142.745 8.8181 142.593 8.34813 142.289 7.98761C141.992 7.6271 141.588 7.44684 141.077 7.44684C140.553 7.44684 140.139 7.6271 139.835 7.98761C139.537 8.34168 139.388 8.81165 139.388 9.39748V14.361C139.388 14.831 139.252 15.214 138.981 15.5101C138.716 15.7999 138.373 15.9447 137.952 15.9447C137.532 15.9447 137.189 15.7999 136.924 15.5101C136.659 15.214 136.526 14.831 136.526 14.361V9.39748C136.526 8.8181 136.374 8.34813 136.07 7.98761C135.773 7.6271 135.368 7.44684 134.857 7.44684C134.294 7.44684 133.871 7.62388 133.586 7.97795C133.308 8.32559 133.169 8.79877 133.169 9.39748V14.361C133.169 14.831 133.033 15.214 132.762 15.5101C132.496 15.7999 132.154 15.9447 131.733 15.9447C131.313 15.9447 130.97 15.7999 130.705 15.5101C130.439 15.214 130.307 14.831 130.307 14.361Z" fill="#00B3EE"/>
<path d="M107.429 16.0466C107.531 17.4905 105.873 17.1651 105.873 17.1651C105.873 17.1651 106.562 17.6941 107.101 17.7142C107.774 17.7391 108.235 17.5062 108.596 16.9414C109.068 16.2006 108.829 15.2332 108.391 14.7045C107.818 14.0131 107.04 13.769 106.344 13.769C105.459 13.769 104.731 14.1951 104.276 14.9485C103.846 15.6603 103.763 16.3344 104.071 17.1651C104.367 17.9622 105.627 18.5072 105.627 18.5072C105.627 18.5072 104.792 17.6328 104.87 16.555C104.931 15.7009 105.443 15.3349 106.078 15.1722C106.687 15.0159 107.384 15.4226 107.429 16.0466Z" fill="url(#paint0_linear_525_241)"/>
<mask id="mask0_525_241" style="mask-type:alpha" maskUnits="userSpaceOnUse" x="0" y="0" width="26" height="24">
<path d="M18.2992 11.5365C18.8167 18.8498 10.4337 17.2017 10.4337 17.2017C10.4337 17.2017 13.9157 19.8815 16.6434 19.9828C20.0449 20.1093 22.3757 18.9298 24.1984 16.0687C26.5891 12.3164 25.3795 7.41633 23.1635 4.7382C20.2657 1.23607 16.3329 8.24039e-06 12.8141 0C8.34238 -1.03004e-05 4.66187 2.15798 2.36118 5.97427C0.187773 9.57943 -0.230054 12.9941 1.3262 17.2017C2.81961 21.2395 9.19174 24 9.19174 24C9.19174 24 4.97068 19.5708 5.36247 14.1116C5.67295 9.78544 8.26029 7.93134 11.4686 7.1073C14.5514 6.31553 18.0756 8.37568 18.2992 11.5365Z" fill="#C4C4C4"/>
<path d="M18.2992 11.5365C18.8167 18.8498 10.4337 17.2017 10.4337 17.2017C10.4337 17.2017 13.9157 19.8815 16.6434 19.9828C20.0449 20.1093 22.3757 18.9298 24.1984 16.0687C26.5891 12.3164 25.3795 7.41633 23.1635 4.7382C20.2657 1.23607 16.3329 8.24039e-06 12.8141 0C8.34238 -1.03004e-05 4.66187 2.15798 2.36118 5.97427C0.187773 9.57943 -0.230054 12.9941 1.3262 17.2017C2.81961 21.2395 9.19174 24 9.19174 24C9.19174 24 4.97068 19.5708 5.36247 14.1116C5.67295 9.78544 8.26029 7.93134 11.4686 7.1073C14.5514 6.31553 18.0756 8.37568 18.2992 11.5365Z" stroke="black"/>
</mask>
<g mask="url(#mask0_525_241)">
<path d="M18.2941 11.5365C18.8116 18.8498 10.4285 17.2017 10.4285 17.2017C10.4285 17.2017 13.9106 19.8815 16.6382 19.9828C20.0398 20.1093 22.3705 18.9298 24.1933 16.0687C26.584 12.3164 25.3743 7.41634 23.1583 4.7382C20.2605 1.23607 16.3278 8.24039e-06 12.809 0C8.33725 -1.03004e-05 4.65674 2.15798 2.35605 5.97427C0.182646 9.57943 -0.235181 12.9941 1.32107 17.2017C2.81448 21.2395 9.18661 24 9.18661 24C9.18661 24 4.96555 19.5708 5.35734 14.1116C5.66782 9.78544 8.25516 7.93134 11.4635 7.1073C14.5462 6.31553 18.0705 8.37568 18.2941 11.5365Z" fill="url(#paint1_linear_525_241)"/>
<path d="M23.9877 5.76821C23.9877 1.23601 20.9863 1.44202 20.9863 1.44202C21.189 -0.026958 20.5845 1.26691 19.5312 -0.412077C18.4778 -2.09107 22.2238 -2.33923 19.5312 -3.45996L12.9138 -0.721066L16.6396 8.24032L15.7619 16.6843C15.7619 16.6843 18.8129 17.0987 20.9863 14.8326C23.1598 12.5665 23.9877 10.3004 23.9877 5.76821Z" fill="url(#paint2_linear_525_241)"/>
<path d="M23.9877 5.76821C23.9877 1.23601 20.9863 1.44202 20.9863 1.44202C21.189 -0.026958 20.5845 1.26691 19.5312 -0.412077C18.4778 -2.09107 22.2238 -2.33923 19.5312 -3.45996L12.9138 -0.721066L16.6396 8.24032L15.7619 16.6843C15.7619 16.6843 18.8129 17.0987 20.9863 14.8326C23.1598 12.5665 23.9877 10.3004 23.9877 5.76821Z" fill="url(#paint3_linear_525_241)"/>
<path d="M13.4325 -1.33851C9.05894 -2.63812 6.15118 -0.921841 6.15118 -0.921841C4.70441 -1.27574 6.79496 -2.81329 5.00726 -1.94589C3.21958 -1.07848 -0.0291108 4.23475 -1.42999 6.78295L3.78433 6.20407L11.9438 6.50037L18.3062 12.6161C18.3062 12.6161 19.7813 10.776 19.7813 7.29383C19.7814 3.81169 17.806 -0.0389085 13.4325 -1.33851Z" fill="url(#paint4_linear_525_241)"/>
<path d="M6.23847 1.30779C1.71725 1.93064 0.239849 3.51136 0.239849 3.51136C-1.22409 3.78655 0.0374107 1.52451 -1.22779 3.05176C-2.49298 4.57898 -3.23485 10.7547 -3.44763 13.6517L1.05581 10.9725L8.60386 7.87387L16.9419 10.8124C16.9419 10.8124 17.304 7.8453 16.0661 5.36054C14.8282 2.87579 10.7597 0.684939 6.23847 1.30779Z" fill="url(#paint5_linear_525_241)"/>
<path d="M6.23847 1.30779C1.71725 1.93064 0.239849 3.51136 0.239849 3.51136C-1.22409 3.78655 0.0374107 1.52451 -1.22779 3.05176C-2.49298 4.57898 -3.23485 10.7547 -3.44763 13.6517L1.05581 10.9725L8.60386 7.87387L16.9419 10.8124C16.9419 10.8124 17.304 7.8453 16.0661 5.36054C14.8282 2.87579 10.7597 0.684939 6.23847 1.30779Z" fill="url(#paint6_linear_525_241)"/>
<path d="M1.53212 7.31416C-1.26223 10.0953 -1.57271 13.2884 -1.57271 13.2884C-2.57315 14.3871 -2.93886 11.8257 -3.02166 13.8034C-3.10445 15.7811 0.0486805 21.1511 1.63559 23.5888L3.60198 18.7476L7.74176 11.7433L15.4003 7.72618C15.4003 7.72618 14.9864 6.3871 11.985 5.25407C8.98367 4.12102 4.32647 4.53302 1.53212 7.31416Z" fill="url(#paint7_linear_525_241)"/>
<path d="M2.66744 19.777C3.7024 24.6182 3.70234 24.5152 3.70234 24.5152L10.326 25.5452L8.98057 22.7641L10.6365 7.31348C10.6365 7.31348 7.01097 7.51949 4.63381 9.78558C2.25664 12.0517 1.63246 14.9358 2.66744 19.777Z" fill="url(#paint8_linear_525_241)"/>
</g>
<defs>
<linearGradient id="paint0_linear_525_241" x1="108.432" y1="15.0183" x2="107.521" y2="17.6454" gradientUnits="userSpaceOnUse">
<stop stop-color="#0086CD"/>
<stop offset="1" stop-color="#0073BF"/>
</linearGradient>
<linearGradient id="paint1_linear_525_241" x1="23.3653" y1="6.32779" x2="18.7474" y2="19.6289" gradientUnits="userSpaceOnUse">
<stop stop-color="#00A2DF"/>
<stop offset="1" stop-color="#1F7DC1"/>
</linearGradient>
<linearGradient id="paint2_linear_525_241" x1="23.0561" y1="10.5509" x2="19.0395" y2="6.41168" gradientUnits="userSpaceOnUse">
<stop stop-color="#1782C6"/>
<stop offset="1" stop-color="#00AFE9"/>
</linearGradient>
<linearGradient id="paint3_linear_525_241" x1="23.0561" y1="10.5509" x2="18.2245" y2="3.01072" gradientUnits="userSpaceOnUse">
<stop stop-color="#247ABF"/>
<stop offset="1" stop-color="#00BDF4"/>
</linearGradient>
<linearGradient id="paint4_linear_525_241" x1="19.5387" y1="9.31544" x2="11.0772" y2="1.03826" gradientUnits="userSpaceOnUse">
<stop stop-color="#247ABF"/>
<stop offset="1" stop-color="#00BDF4"/>
</linearGradient>
<linearGradient id="paint5_linear_525_241" x1="8.2614" y1="2.14408" x2="5.26637" y2="7.63055" gradientUnits="userSpaceOnUse">
<stop stop-color="#1782C6"/>
<stop offset="1" stop-color="#00AFE9"/>
</linearGradient>
<linearGradient id="paint6_linear_525_241" x1="14.6749" y1="5.40075" x2="2.34663" y2="5.61495" gradientUnits="userSpaceOnUse">
<stop stop-color="#247ABF"/>
<stop offset="1" stop-color="#00BDF4"/>
</linearGradient>
<linearGradient id="paint7_linear_525_241" x1="12.9165" y1="6.84363" x2="0.842522" y2="13.7802" gradientUnits="userSpaceOnUse">
<stop stop-color="#247ABF"/>
<stop offset="1" stop-color="#00BDF4"/>
</linearGradient>
<linearGradient id="paint8_linear_525_241" x1="5.27546" y1="9.91615" x2="7.04621" y2="15.4334" gradientUnits="userSpaceOnUse">
<stop stop-color="#247ABF"/>
<stop offset="1" stop-color="#00BDF4"/>
</linearGradient>
</defs>
</svg>
