<svg width="400" height="358" viewBox="0 0 400 358" fill="none" xmlns="http://www.w3.org/2000/svg">
<path fill-rule="evenodd" clip-rule="evenodd" d="M97.5704 100.44C121.032 77.2285 152.852 64.1882 186.03 64.1882H186.124C201.283 64.1994 216.157 66.9325 230.078 72.114C234.72 73.8417 236.375 79.4152 233.745 83.6125V83.6125C231.566 87.09 227.165 88.3895 223.323 86.9493C214.137 83.5067 204.219 81.237 193.849 80.8511L193.866 82.5849C193.908 86.9323 190.396 90.4791 186.048 90.4791V90.4791C181.76 90.4791 178.271 87.0246 178.23 82.7364L178.212 80.8511C167.734 84.0072 157.335 93.5377 148.703 109.551C145.859 114.874 143.413 120.397 141.385 126.074H144.89C147.652 126.074 149.89 128.313 149.89 131.074V133.81V136.546C149.89 139.307 147.652 141.546 144.89 141.546H136.725C133.649 154.229 131.878 167.188 131.439 180.225H144.89C147.652 180.225 149.89 182.463 149.89 185.225V187.96V190.696C149.89 193.457 147.652 195.696 144.89 195.696H131.455C131.889 208.732 133.654 221.691 136.725 234.375H178.212V226.354C178.212 222.036 181.712 218.536 186.031 218.536V218.536C190.349 218.536 193.849 222.036 193.849 226.354V234.375H210.939C215.211 234.375 218.674 237.838 218.674 242.111V242.111C218.674 246.383 215.211 249.846 210.939 249.846H193.849V295.069C204.327 291.913 214.726 282.383 223.358 266.37C225.256 262.852 227.031 259.076 228.667 255.072C229.938 251.962 232.915 249.846 236.275 249.846V249.846C241.671 249.846 245.504 255.095 243.485 260.099C241.619 264.721 239.51 269.247 237.166 273.657C234.463 278.716 231.34 283.544 227.83 288.092C235.312 285.022 242.391 281.159 248.952 276.592C252.129 274.381 256.447 274.531 259.278 277.17V277.17C262.748 280.403 262.579 285.971 258.705 288.706C237.634 303.585 212.257 311.732 186.03 311.732C152.852 311.732 121.032 298.692 97.5704 275.48C74.1094 252.269 60.9291 220.787 60.9291 187.96C60.9291 169.019 65.3174 150.525 73.5369 133.81C79.5624 121.556 87.6467 110.259 97.5704 100.44ZM134.895 102.264C130.843 109.887 127.494 117.856 124.887 126.074H96.192C108.186 109.05 124.856 95.7784 144.231 87.8287C140.722 92.3772 137.599 97.2053 134.895 102.264ZM120.665 141.546C117.944 153.644 116.255 166.656 115.786 180.225H76.8482C77.7961 166.811 81.2755 153.692 87.1066 141.546H120.665ZM148.703 266.37C145.998 261.357 143.543 255.818 141.385 249.846H178.212V295.069C167.75 291.898 157.335 282.383 148.703 266.37ZM134.895 273.657C137.599 278.715 140.721 283.544 144.231 288.092C124.856 280.143 108.186 266.871 96.192 249.846H124.887C127.494 258.064 130.843 266.034 134.895 273.657ZM115.786 195.696C116.204 208.71 117.837 221.658 120.665 234.375H87.1066C81.3988 222.508 77.8178 209.466 76.8482 195.696H115.786Z" fill="url(#paint0_linear_339_2138)"/>
<path d="M184.858 102.544H270.837C278.625 102.544 284.939 108.858 284.939 116.647V124.04C284.939 127.494 282.139 130.295 278.684 130.295C275.229 130.295 272.429 127.494 272.429 124.04V122.105C272.429 118.211 269.272 115.054 265.378 115.054H184.858C181.105 115.054 178.603 117.557 178.603 121.31V190.117C178.603 193.87 181.105 196.373 184.858 196.373H252.071C259.86 196.373 266.174 202.686 266.174 210.475V233.107C266.174 237.002 269.331 240.158 273.225 240.158H301.828C305.722 240.158 308.879 243.315 308.879 247.21V258.299L330.834 240.92C331.456 240.427 332.228 240.158 333.022 240.158H341.235C344.988 240.158 347.49 237.657 347.49 233.903V165.096C347.49 161.343 344.988 158.841 341.235 158.841H273.225C269.77 158.841 266.97 156.041 266.97 152.586C266.97 149.131 269.77 146.331 273.225 146.331H341.235C351.868 146.331 360 154.462 360 165.096V233.903C360 244.537 351.868 252.669 341.235 252.669H334.98L301.297 279.544C298.988 281.387 295.573 279.743 295.573 276.789V252.669H267.766C259.977 252.669 253.664 246.355 253.664 238.567V208.883H184.858C174.224 208.883 166.092 200.751 166.092 190.117V121.31C166.092 110.676 174.224 102.544 184.858 102.544Z" fill="url(#paint1_linear_339_2138)"/>
<path d="M282.096 221.87H296.043L299.53 212.997H317.545L321.032 221.87H334.98L315.221 172.512H301.273L282.096 221.87ZM308.247 186.377L314.059 203.569H302.436L308.247 186.377Z" fill="url(#paint2_linear_339_2138)"/>
<path d="M205.131 187.5C211.433 187.5 220.027 185.769 228.047 181.731C236.068 185.769 245.235 187.5 250.964 187.5V175.962C250.964 175.962 245.235 175.962 238.933 173.654C245.808 166.731 250.964 156.347 250.964 141.347V135.578H233.776V124.04H222.318V135.578H205.131V147.116H238.933C237.787 157.501 233.204 163.847 228.047 167.885C224.61 165 221.172 160.962 218.881 155.77H206.85C209.141 163.27 212.579 169.039 217.162 173.654C211.433 175.962 206.277 175.962 205.131 175.962V187.5Z" fill="url(#paint3_linear_339_2138)"/>
<g opacity="0.05">
<path d="M299.251 195.747C299.251 263.708 244.158 318.802 176.196 318.802C108.234 318.802 53.1407 263.708 53.1407 195.747C53.1407 127.785 108.234 72.6912 176.196 72.6912C244.158 72.6912 299.251 127.785 299.251 195.747Z" fill="#2789FF"/>
<path d="M177.069 108.796H263.048C270.837 108.796 277.151 115.11 277.151 122.899V130.291C277.151 133.746 274.35 136.546 270.896 136.546C267.441 136.546 264.641 133.746 264.641 130.291V128.357C264.641 124.463 261.484 121.306 257.589 121.306H177.069C173.316 121.306 170.814 123.809 170.814 127.562V196.369C170.814 200.122 173.316 202.625 177.069 202.625H244.283C252.072 202.625 258.385 208.939 258.385 216.727V239.359C258.385 243.254 261.542 246.411 265.437 246.411H294.039C297.934 246.411 301.091 249.568 301.091 253.462V264.551L323.045 247.172C323.668 246.679 324.439 246.411 325.233 246.411H333.446C337.2 246.411 339.701 243.909 339.701 240.156V171.348C339.701 167.595 337.2 165.093 333.446 165.093H265.437C261.982 165.093 259.182 162.293 259.182 158.838C259.182 155.383 261.982 152.583 265.437 152.583H277.151H333.446C344.08 152.583 352.212 160.714 352.212 171.348V240.156C352.212 250.789 344.08 258.921 333.446 258.921H327.191L293.509 285.796C291.2 287.639 287.784 285.995 287.784 283.041V258.921H259.978C252.189 258.921 245.875 252.608 245.875 244.819V215.135H177.069C166.436 215.135 158.304 207.003 158.304 196.369V127.562C158.304 116.928 166.436 108.796 177.069 108.796Z" fill="#2789FF"/>
<path d="M264.641 130.291V128.357C264.641 124.463 261.484 121.306 257.589 121.306H177.069C173.316 121.306 170.814 123.809 170.814 127.562V196.369C170.814 200.122 173.316 202.625 177.069 202.625H244.283C252.072 202.625 258.385 208.939 258.385 216.727V239.359C258.385 243.254 261.542 246.411 265.437 246.411H294.039C297.934 246.411 301.091 249.568 301.091 253.462V264.551L323.045 247.172C323.668 246.679 324.439 246.411 325.233 246.411H333.446C337.2 246.411 339.701 243.909 339.701 240.156V171.348C339.701 167.595 337.2 165.093 333.446 165.093H265.437C261.982 165.093 259.182 162.293 259.182 158.838C259.182 155.383 261.982 152.583 265.437 152.583H277.151V130.291C277.151 133.746 274.35 136.546 270.896 136.546C267.441 136.546 264.641 133.746 264.641 130.291Z" fill="#2789FF"/>
</g>
<rect x="294.75" y="0.34668" width="5.66664" height="31.1664" rx="2.83332" fill="#87D8FE"/>
<rect x="284.833" y="18.7678" width="5.66664" height="25.4998" rx="2.83332" transform="rotate(-90 284.833 18.7678)" fill="#87D8FE"/>
<rect x="28.4174" y="322.237" width="7.08328" height="35.4165" rx="3.54164" fill="#87D8FE"/>
<rect x="17.0847" y="343.489" width="7.08328" height="29.7498" rx="3.54164" transform="rotate(-90 17.0847 343.489)" fill="#87D8FE"/>
<rect x="92.4442" y="40.1687" width="3.71433" height="18.5716" rx="1.85717" fill="#87D8FE"/>
<rect x="86.5011" y="51.3096" width="3.71433" height="15.6002" rx="1.85717" transform="rotate(-90 86.5011 51.3096)" fill="#87D8FE"/>
<circle cx="302.04" cy="90.9271" r="3.54164" fill="#87D8FE"/>
<circle cx="56.0423" cy="35.2138" r="3.54164" fill="#87D8FE"/>
<circle cx="294.041" cy="325.626" r="3.54164" fill="#87D8FE"/>
<circle cx="319.54" cy="338.372" r="2.12498" fill="#87D8FE"/>
<circle cx="313.957" cy="319.005" r="3.54164" fill="#87D8FE"/>
<circle cx="3.54164" cy="253.839" r="3.54164" fill="#87D8FE"/>
<defs>
<linearGradient id="paint0_linear_339_2138" x1="256.356" y1="289.449" x2="37.0331" y2="215.479" gradientUnits="userSpaceOnUse">
<stop stop-color="#799BF8"/>
<stop offset="1" stop-color="#87D8FE"/>
</linearGradient>
<linearGradient id="paint1_linear_339_2138" x1="256.356" y1="289.449" x2="37.0331" y2="215.479" gradientUnits="userSpaceOnUse">
<stop stop-color="#799BF8"/>
<stop offset="1" stop-color="#87D8FE"/>
</linearGradient>
<linearGradient id="paint2_linear_339_2138" x1="256.356" y1="289.449" x2="37.0331" y2="215.479" gradientUnits="userSpaceOnUse">
<stop stop-color="#799BF8"/>
<stop offset="1" stop-color="#87D8FE"/>
</linearGradient>
<linearGradient id="paint3_linear_339_2138" x1="256.356" y1="289.449" x2="37.0331" y2="215.479" gradientUnits="userSpaceOnUse">
<stop stop-color="#799BF8"/>
<stop offset="1" stop-color="#87D8FE"/>
</linearGradient>
</defs>
</svg>
